<?xml version="1.0" encoding="utf-8"?>
<svg width="161px" height="55px" viewBox="0 0 161 55" version="1.1" xmlns:xlink="http://www.w3.org/1999/xlink" xmlns="http://www.w3.org/2000/svg">
  <defs>
    <path d="M0 0L161 0L161 55L0 55L0 0Z" id="path_1" />
    <clipPath id="clip_1">
      <use xlink:href="#path_1" clip-rule="evenodd" fill-rule="evenodd" />
    </clipPath>
  </defs>
  <g id="BookesS" clip-path="url(#clip_1)">
    <g id="BookesS" fill="#FF8C8C">
      <path d="M18.2197 24.7658Q20.4521 25.2756 21.7617 26.9895Q23.0801 28.6945 23.0801 30.8918Q23.0801 34.1262 20.8477 35.9631Q18.6152 37.8 14.5811 37.8L2.0127 37.8L2.0127 12.4172L14.1855 12.4172Q18.0703 12.4172 20.2852 14.1486Q22.5 15.8801 22.5 19.009Q22.5 21.2414 21.3311 22.7355Q20.1621 24.2297 18.2197 24.7658ZM9.07031 22.4982L12.6387 22.4982Q15.3018 22.4982 15.3018 20.301Q15.3018 18.0334 12.6387 18.0334L9.07031 18.0334L9.07031 22.4982ZM13.1748 32.1135Q15.8379 32.1135 15.8379 29.8811Q15.8379 28.7297 15.1348 28.1232Q14.4316 27.508 13.1396 27.508L9.07031 27.508L9.07031 32.1135L13.1748 32.1135ZM35.5642 38.0549Q32.5408 38.0549 30.1501 36.798Q27.7595 35.5324 26.3884 33.1945Q25.0173 30.8479 25.0173 27.6838Q25.0173 24.5549 26.406 22.217Q27.7947 19.8703 30.1853 18.6135Q32.5759 17.3479 35.6081 17.3479Q38.6316 17.3479 41.0222 18.6135Q43.4128 19.8703 44.8015 22.217Q46.1902 24.5549 46.1902 27.6838Q46.1902 30.8127 44.8015 33.177Q43.4128 35.5324 40.9958 36.798Q38.5876 38.0549 35.5642 38.0549ZM35.5642 31.9289Q37.0408 31.9289 38.0339 30.8303Q39.0271 29.7316 39.0271 27.6838Q39.0271 25.6359 38.0339 24.5549Q37.0408 23.4738 35.6081 23.4738Q34.1667 23.4738 33.1912 24.5549Q32.2244 25.6359 32.2244 27.6838Q32.2244 29.7756 33.156 30.8566Q34.0876 31.9289 35.5642 31.9289ZM58.4602 38.0549Q55.4368 38.0549 53.0461 36.798Q50.6555 35.5324 49.2844 33.1945Q47.9133 30.8479 47.9133 27.6838Q47.9133 24.5549 49.302 22.217Q50.6907 19.8703 53.0813 18.6135Q55.4719 17.3479 58.5041 17.3479Q61.5276 17.3479 63.9182 18.6135Q66.3088 19.8703 67.6975 22.217Q69.0862 24.5549 69.0862 27.6838Q69.0862 30.8127 67.6975 33.177Q66.3088 35.5324 63.8918 36.798Q61.4836 38.0549 58.4602 38.0549ZM58.4602 31.9289Q59.9368 31.9289 60.9299 30.8303Q61.9231 29.7316 61.9231 27.6838Q61.9231 25.6359 60.9299 24.5549Q59.9368 23.4738 58.5041 23.4738Q57.0627 23.4738 56.0872 24.5549Q55.1204 25.6359 55.1204 27.6838Q55.1204 29.7756 56.052 30.8566Q56.9836 31.9289 58.4602 31.9289ZM84.5994 37.8L79.0183 29.5207L79.0183 37.8L71.9607 37.8L71.9607 11.1604L79.0183 11.1604L79.0183 25.5217L84.5994 17.6027L93.0632 17.6027L85.1003 27.7541L93.2039 37.8L84.5994 37.8ZM114.553 27.4641Q114.553 28.299 114.448 29.1252L101.089 29.1252Q101.194 30.7775 102.003 31.5949Q102.82 32.4035 104.077 32.4035Q105.844 32.4035 106.599 30.8127L114.123 30.8127Q113.648 32.9045 112.295 34.548Q110.95 36.1828 108.893 37.1232Q106.845 38.0549 104.367 38.0549Q101.379 38.0549 99.0496 36.798Q96.7293 35.5324 95.4109 33.1945Q94.1013 30.8479 94.1013 27.6838Q94.1013 24.5197 95.3933 22.1994Q96.6941 19.8703 99.0144 18.6135Q101.344 17.3479 104.367 17.3479Q107.355 17.3479 109.658 18.5783Q111.961 19.8 113.253 22.0852Q114.553 24.3703 114.553 27.4641ZM107.355 25.7062Q107.355 24.4055 106.485 23.6672Q105.624 22.9289 104.332 22.9289Q103.031 22.9289 102.205 23.632Q101.379 24.3352 101.124 25.7062L107.355 25.7062ZM126.033 38.0549Q123.3 38.0549 121.155 37.1408Q119.02 36.218 117.771 34.6184Q116.532 33.01 116.392 30.9973L123.229 30.9973Q123.37 31.9641 124.126 32.509Q124.882 33.0451 125.998 33.0451Q126.868 33.0451 127.369 32.6848Q127.87 32.3244 127.87 31.7531Q127.87 30.9973 127.044 30.6369Q126.218 30.2766 124.311 29.8459Q122.148 29.4152 120.707 28.8791Q119.266 28.3342 118.202 27.1125Q117.147 25.882 117.147 23.799Q117.147 21.9973 118.114 20.5383Q119.09 19.0793 120.979 18.218Q122.869 17.3479 125.532 17.3479Q129.496 17.3479 131.764 19.299Q134.031 21.2414 134.392 24.4055L128.02 24.4055Q127.835 23.4387 127.167 22.9201Q126.508 22.3928 125.392 22.3928Q124.521 22.3928 124.073 22.718Q123.625 23.0432 123.625 23.6145Q123.625 24.3352 124.451 24.7131Q125.277 25.091 127.114 25.4865Q129.312 25.9523 130.77 26.5324Q132.229 27.1037 133.328 28.3869Q134.427 29.6613 134.427 31.8586Q134.427 33.6252 133.398 35.0314Q132.37 36.4289 130.48 37.2463Q128.591 38.0549 126.033 38.0549ZM147.457 38.0549Q143.027 38.0549 140.179 35.9455Q137.341 33.8361 137.121 29.9162L144.644 29.9162Q144.759 31.2521 145.435 31.8674Q146.121 32.4738 147.202 32.4738Q148.177 32.4738 148.801 31.9904Q149.434 31.4982 149.434 30.6369Q149.434 29.5207 148.388 28.9143Q147.351 28.299 145.005 27.5432Q142.526 26.7082 140.997 25.9348Q139.468 25.1613 138.334 23.6672Q137.2 22.173 137.2 19.7648Q137.2 17.3127 138.422 15.5725Q139.643 13.8234 141.805 12.927Q143.968 12.0217 146.701 12.0217Q151.131 12.0217 153.776 14.0959Q156.422 16.1613 156.597 19.9055L148.933 19.9055Q148.898 18.7541 148.23 18.1828Q147.562 17.6027 146.516 17.6027Q145.725 17.6027 145.224 18.0773Q144.723 18.5432 144.723 19.4045Q144.723 20.1252 145.277 20.6525Q145.84 21.1711 146.666 21.549Q147.492 21.927 149.109 22.4982Q151.526 23.3244 153.091 24.1418Q154.655 24.9504 155.789 26.4094Q156.923 27.8684 156.923 30.092Q156.923 32.3684 155.789 34.1701Q154.655 35.9631 152.51 37.009Q150.375 38.0549 147.457 38.0549Z" />
    </g>
  </g>
</svg>