<svg width="688" height="688" viewBox="0 0 688 688" fill="none" xmlns="http://www.w3.org/2000/svg">
<path d="M186.333 458.666C208.789 458.666 230.647 461.174 251.908 466.191C273.169 471.208 294.311 478.733 315.333 488.766V206.399C295.744 194.933 274.961 186.333 252.983 180.599C231.006 174.866 208.789 171.999 186.333 171.999C169.133 171.999 152.053 173.672 135.092 177.016C118.131 180.36 101.767 185.377 86 192.066V475.866C102.722 470.133 119.325 465.833 135.808 462.966C152.292 460.099 169.133 458.666 186.333 458.666ZM372.667 488.766C393.689 478.733 414.831 471.208 436.092 466.191C457.353 461.174 479.211 458.666 501.667 458.666C518.867 458.666 535.708 460.099 552.192 462.966C568.675 465.833 585.278 470.133 602 475.866V192.066C586.233 185.377 569.869 180.36 552.908 177.016C535.947 173.672 518.867 171.999 501.667 171.999C479.211 171.999 456.994 174.866 435.017 180.599C413.039 186.333 392.256 194.933 372.667 206.399V488.766ZM344 573.333C321.067 555.177 296.222 541.083 269.467 531.049C242.711 521.016 215 515.999 186.333 515.999C166.267 515.999 146.558 518.627 127.208 523.883C107.858 529.138 89.3445 536.544 71.6667 546.099C61.6334 551.355 51.9584 551.116 42.6417 545.383C33.325 539.649 28.6667 531.288 28.6667 520.299V174.866C28.6667 169.61 29.9806 164.594 32.6084 159.816C35.2361 155.038 39.1778 151.455 44.4334 149.066C66.4111 137.599 89.3445 128.999 113.233 123.266C137.122 117.533 161.489 114.666 186.333 114.666C214.044 114.666 241.158 118.249 267.675 125.416C294.192 132.583 319.633 143.333 344 157.666C368.367 143.333 393.808 132.583 420.325 125.416C446.842 118.249 473.956 114.666 501.667 114.666C526.511 114.666 550.878 117.533 574.767 123.266C598.656 128.999 621.589 137.599 643.567 149.066C648.822 151.455 652.764 155.038 655.392 159.816C658.019 164.594 659.333 169.61 659.333 174.866V520.299C659.333 531.288 654.675 539.649 645.358 545.383C636.042 551.116 626.367 551.355 616.333 546.099C598.656 536.544 580.142 529.138 560.792 523.883C541.442 518.627 521.733 515.999 501.667 515.999C473 515.999 445.289 521.016 418.533 531.049C391.778 541.083 366.933 555.177 344 573.333Z" fill="#B7B4B4"/>
<path d="M208.316 369.737C208.316 389.807 212.368 408.816 220.474 426.763C228.579 444.711 240.158 460.439 255.211 473.947C254.825 472.018 254.632 470.281 254.632 468.737V463.526C254.632 451.175 256.947 439.596 261.579 428.789C266.211 417.982 272.965 408.14 281.842 399.263L347.263 335L412.684 399.263C421.561 408.14 428.316 417.982 432.947 428.789C437.579 439.596 439.895 451.175 439.895 463.526V468.737C439.895 470.281 439.702 472.018 439.316 473.947C454.368 460.439 465.947 444.711 474.053 426.763C482.158 408.816 486.211 389.807 486.211 369.737C486.211 350.439 482.64 332.202 475.5 315.026C468.36 297.851 458.035 282.509 444.526 269C436.807 274.018 428.702 277.781 420.211 280.289C411.719 282.798 403.035 284.053 394.158 284.053C370.228 284.053 349.482 276.14 331.921 260.316C314.36 244.491 304.228 225 301.526 201.842C286.474 214.579 273.158 227.798 261.579 241.5C250 255.202 240.254 269.096 232.342 283.184C224.43 297.272 218.447 311.649 214.395 326.316C210.342 340.982 208.316 355.456 208.316 369.737ZM347.263 399.842L314.263 432.263C310.018 436.509 306.737 441.333 304.421 446.737C302.105 452.14 300.947 457.737 300.947 463.526C300.947 475.877 305.482 486.491 314.553 495.368C323.623 504.246 334.526 508.684 347.263 508.684C360 508.684 370.904 504.246 379.974 495.368C389.044 486.491 393.579 475.877 393.579 463.526C393.579 457.351 392.421 451.658 390.105 446.447C387.789 441.237 384.509 436.509 380.263 432.263L347.263 399.842ZM347.263 115V191.421C347.263 204.544 351.798 215.544 360.868 224.421C369.939 233.298 381.035 237.737 394.158 237.737C401.105 237.737 407.57 236.289 413.553 233.395C419.535 230.5 424.842 226.158 429.474 220.368L439.895 207.632C468.456 223.842 491.035 246.421 507.632 275.368C524.228 304.316 532.526 335.772 532.526 369.737C532.526 421.456 514.579 465.263 478.684 501.158C442.789 537.053 398.982 555 347.263 555C295.544 555 251.737 537.053 215.842 501.158C179.947 465.263 162 421.456 162 369.737C162 319.947 178.693 272.667 212.079 227.895C245.465 183.123 290.526 145.491 347.263 115ZM578.842 300.263C572.281 300.263 566.781 298.044 562.342 293.605C557.904 289.167 555.684 283.667 555.684 277.105C555.684 270.544 557.904 265.044 562.342 260.605C566.781 256.167 572.281 253.947 578.842 253.947C585.404 253.947 590.904 256.167 595.342 260.605C599.781 265.044 602 270.544 602 277.105C602 283.667 599.781 289.167 595.342 293.605C590.904 298.044 585.404 300.263 578.842 300.263ZM555.684 230.789V115H602V230.789H555.684Z" fill="#FF4B4B"/>
</svg>
