<?xml version="1.0" encoding="UTF-8"?>
<svg version="1.1" xmlns="http://www.w3.org/2000/svg" width="1224" height="792">
<path d="M0 0 C3.38271773 3.34571925 6.52428679 6.76122587 9.5 10.47265625 C10.66982422 11.92091797 10.66982422 11.92091797 11.86328125 13.3984375 C49.45560057 60.65735322 52.02219778 119.26779635 53.05078125 177.12109375 C53.07187328 178.27455292 53.09296532 179.42801208 53.1146965 180.61642456 C53.57237163 206.12425003 53.6543142 231.62925963 53.63037109 257.140625 C53.62467459 263.24971844 53.62807425 269.35876826 53.633811 275.46786022 C53.65404093 300.93862823 53.51484169 326.40042444 53.04296875 351.8671875 C53.02275288 352.97715591 53.002537 354.08712433 52.98170853 355.23072815 C51.86611611 414.99405833 48.21029394 476.24237643 5.5078125 522.25390625 C4.10167378 523.8077716 2.75377022 525.41541219 1.453125 527.05859375 C-1.48296705 530.68760353 -4.91146409 533.50360321 -8.5 536.47265625 C-8.99290527 536.88322266 -9.48581055 537.29378906 -9.99365234 537.71679688 C-79.29292825 595.07081741 -183.03841387 581.60909652 -411.5 578.47265625 C-455.48142333 573.90713055 -495.53583017 559.48057861 -527.0859375 527.8828125 C-528.54054746 526.43055628 -530.0176663 524.99970201 -531.53515625 523.61328125 C-570.96751121 486.84014098 -577.67797858 428.17500996 -579.5 377.47265625 C-579.74770772 369.29704078 -579.89977955 361.11934526 -580.046875 352.94140625 C-580.06812313 351.78704071 -580.08937126 350.63267517 -580.11126328 349.44332886 C-580.57701257 323.61256364 -580.65415554 297.78456693 -580.63037109 271.95019531 C-580.62467458 265.72004148 -580.6280736 259.48993041 -580.633811 253.25977802 C-580.65388147 227.49702456 -580.52026385 201.74309578 -580.04296875 175.984375 C-580.02275288 174.8739534 -580.002537 173.7635318 -579.98170853 172.61946106 C-578.74645483 106.44885892 -571.89765953 44.11647627 -522.53515625 -4.4609375 C-520.58450995 -6.24084889 -518.56838521 -7.88510826 -516.5 -9.52734375 C-515.99645996 -9.94274414 -515.49291992 -10.35814453 -514.97412109 -10.78613281 C-468.33372844 -49.06131104 -408.17624089 -51.12141427 -350.625 -52.08984375 C-348.79799561 -52.12111359 -348.79799561 -52.12111359 -346.93408203 -52.15301514 C-119.77597955 -55.8703954 -119.77597955 -55.8703954 0 0 Z M-356.015625 5.92578125 C-356.95298492 5.94573025 -357.89034485 5.96567924 -358.85610962 5.98623276 C-405.76298761 7.01813955 -453.91665777 8.7770931 -488.72973633 44.30151367 C-493.22627024 49.03021778 -497.1681712 53.84244431 -500.5 59.47265625 C-501.15355469 60.56707031 -501.80710937 61.66148437 -502.48046875 62.7890625 C-516.23964752 86.71399089 -519.75825533 114.13835561 -521.01611328 141.2734375 C-521.07940921 142.63108467 -521.07940921 142.63108467 -521.14398384 144.01615906 C-521.58924236 153.93611298 -521.85196037 163.85761295 -522.0546875 173.78515625 C-522.07562344 174.78732178 -522.09655937 175.7894873 -522.11812973 176.82202148 C-522.66934026 203.95384701 -522.65207138 231.08876821 -522.62856936 258.22485828 C-522.62479724 263.08350632 -522.62616283 267.94213396 -522.63037109 272.80078125 C-522.65355349 300.31287951 -522.62621205 327.82075306 -522.046875 355.328125 C-522.026926 356.29036484 -522.00697701 357.25260468 -521.98642349 358.2440033 C-520.97764499 405.40089413 -519.49177332 451.29792502 -485.5 487.47265625 C-484.97277344 488.0759375 -484.44554687 488.67921875 -483.90234375 489.30078125 C-458.38229916 517.23576612 -415.71293486 520.64165305 -380.49913025 522.26223755 C-372.16509127 522.62552103 -363.82798599 522.83702405 -355.48828125 523.01953125 C-354.52900223 523.04077938 -353.56972321 523.06202751 -352.58137512 523.08391953 C-325.05663079 523.67366001 -297.52677442 523.62415939 -269.9972418 523.6012255 C-264.944769 523.59745346 -259.89231583 523.59881831 -254.83984375 523.60302734 C-227.06109049 523.62554414 -199.28530265 523.63471904 -171.51171875 523.01953125 C-170.60014511 522.99958225 -169.68857147 522.97963326 -168.74937439 522.95907974 C-122.5290309 521.91269739 -73.59192194 520.69140778 -39.12548828 485.56713867 C-14.03362611 458.98860877 -7.61721301 423.08564587 -5.98388672 387.7421875 C-5.94168943 386.83568451 -5.89949215 385.92918152 -5.85601616 384.99520874 C-5.40306664 374.86592371 -5.14688983 364.73468382 -4.9453125 354.59765625 C-4.92437656 353.57053528 -4.90344063 352.54341431 -4.88187027 351.48516846 C-4.34642776 324.5240782 -4.34760363 297.56095103 -4.37143064 270.59573364 C-4.37520266 265.83399753 -4.37383675 261.07228223 -4.36962891 256.31054688 C-4.34609343 228.93161194 -4.39042258 201.55788804 -4.953125 174.18359375 C-4.973074 173.19602081 -4.99302299 172.20844788 -5.01357651 171.19094849 C-6.0027444 123.67724999 -7.26602436 74.58362977 -43.32885742 39.24291992 C-48.05756153 34.74638601 -52.86978806 30.80448505 -58.5 27.47265625 C-59.59441406 26.81910156 -60.68882812 26.16554688 -61.81640625 25.4921875 C-94.76134961 6.54561605 -134.22037352 6.69027867 -171.125 5.91796875 C-172.10342865 5.89703281 -173.0818573 5.87609688 -174.0899353 5.85452652 C-201.72970723 5.28060883 -229.37396041 5.32100534 -257.01824474 5.34408689 C-262.05871943 5.34785914 -267.09917446 5.34649397 -272.13964844 5.34228516 C-300.10117419 5.3195684 -328.05903369 5.32212654 -356.015625 5.92578125 Z " fill="#F9F9F9" transform="translate(875.5,131.52734375)"/>
<path d="M0 0 C1.62925451 1.49537779 3.25454068 2.99509582 4.875 4.5 C5.83986328 5.36625 5.83986328 5.36625 6.82421875 6.25 C18.60464171 17.31421276 27.58026765 31.18816545 34.875 45.5 C35.39852051 46.50450195 35.39852051 46.50450195 35.93261719 47.52929688 C44.42173682 63.94420286 49.31535435 81.23864746 51.875 99.5 C52.00648438 100.42296875 52.13796875 101.3459375 52.2734375 102.296875 C57.08724527 144.1900129 44.90601787 187.38977978 18.875 220.5 C-9.6068601 256.27760593 -49.20694071 278.04611155 -94.6875 283.25 C-141.51237048 286.29250347 -184.82219053 272.01795845 -220.16796875 241.140625 C-250.4555253 214.09387701 -270.39679197 174.13817008 -273.03515625 133.46875 C-274.53252278 83.99055175 -259.96627742 41.93980408 -226.125 5.5 C-225.5475 4.85675781 -224.97 4.21351563 -224.375 3.55078125 C-200.53079312 -21.83691224 -165.30883736 -37.17674998 -131.125 -41.5 C-130.3103125 -41.61085937 -129.495625 -41.72171875 -128.65625 -41.8359375 C-81.32267098 -47.24131535 -35.34163562 -31.40880116 0 0 Z M-178.125 40.5 C-178.89328125 41.13679688 -179.6615625 41.77359375 -180.453125 42.4296875 C-199.62197758 58.66453203 -211.41010269 83.32431243 -214.875 108 C-217.33956157 139.55841036 -207.78146334 167.46364349 -187.75 191.75 C-183.36137228 196.56431447 -178.27440079 200.53560776 -173.125 204.5 C-172.35542969 205.1084375 -171.58585938 205.716875 -170.79296875 206.34375 C-150.00207812 221.92806325 -122.32329492 228.27248847 -96.703125 225.00390625 C-75.99984202 221.87732647 -58.32978008 213.58185584 -42.125 200.5 C-41.47144531 199.99984375 -40.81789063 199.4996875 -40.14453125 198.984375 C-20.71745835 183.51384555 -8.76476472 157.1406217 -5.375 133 C-3.27292781 106.08322192 -9.46298688 79.1569711 -26.125 57.5 C-26.50543457 56.99823242 -26.88586914 56.49646484 -27.27783203 55.97949219 C-44.56944966 33.50497591 -69.50806912 19.59573252 -97.59765625 15.81640625 C-126.92844349 13.1854054 -155.75506306 20.82988304 -178.125 40.5 Z " fill="#FAFAFA" transform="translate(722.125,275.5)"/>
<path d="M0 0 C8.21769112 6.45675731 14.6597524 14.59377723 16.625 25.0625 C17.54962001 37.81012995 15.95942618 48.04638289 7.53515625 58.0625 C-0.45685836 66.43041714 -9.89610866 70.50379712 -21.4296875 71.09375 C-31.56653206 70.98619727 -42.10689166 67.33060834 -49.375 60.0625 C-56.99759345 50.49588943 -61.54157294 40.57075425 -60.375 28.0625 C-58.21633241 15.86054001 -52.51197406 6.28175949 -42.375 -0.9375 C-28.59719348 -8.55503726 -13.5300584 -7.76725575 0 0 Z " fill="#FBFBFB" transform="translate(802.375,194.9375)"/>
</svg>
